<?xml version="1.0" ?><svg style="enable-background:new 0 0 64 64;" version="1.1" viewBox="0 0 64 64" xml:space="preserve" xmlns="http://www.w3.org/2000/svg" xmlns:xlink="http://www.w3.org/1999/xlink"><style type="text/css">
	.st0{display:none;}
	.st1{display:inline;fill:#FFFFFF;}
	.st2{display:inline;}
	.st3{fill:#C8C8C8;}
	.st4{fill:#5796D1;}
	.st5{fill:none;stroke:#000000;stroke-linecap:round;stroke-linejoin:round;stroke-miterlimit:10;}
	.st6{stroke:#000000;stroke-linecap:round;stroke-linejoin:round;stroke-miterlimit:10;}
	.st7{fill:#FFFFFF;stroke:#000000;stroke-linecap:round;stroke-linejoin:round;stroke-miterlimit:10;}
	.st8{fill:#FFFFFF;}
	
		.st9{display:inline;fill:#E1F9F7;stroke:#000000;stroke-width:2;stroke-linecap:round;stroke-linejoin:round;stroke-miterlimit:10;}
	.st10{fill:#F2FCFC;stroke:#000000;stroke-linecap:round;stroke-linejoin:round;stroke-miterlimit:10;}
	.st11{fill:#E1F9F7;stroke:#000000;stroke-linecap:round;stroke-linejoin:round;stroke-miterlimit:10;}
	.st12{fill:#574943;stroke:#000000;stroke-width:2;stroke-linecap:round;stroke-linejoin:round;stroke-miterlimit:10;}
	.st13{fill:#A4EDE6;stroke:#000000;stroke-linecap:round;stroke-linejoin:round;stroke-miterlimit:10;}
	.st14{fill:#FFDD64;stroke:#000000;stroke-linecap:round;stroke-linejoin:round;stroke-miterlimit:10;}
	.st15{fill:#FC3A52;stroke:#000000;stroke-linecap:round;stroke-linejoin:round;stroke-miterlimit:10;}
	.st16{fill:#F2FCFC;stroke:#000000;stroke-width:3;stroke-linecap:round;stroke-linejoin:round;stroke-miterlimit:10;}
	.st17{fill:#E1F9F7;stroke:#000000;stroke-width:3;stroke-linecap:round;stroke-linejoin:round;stroke-miterlimit:10;}
	.st18{fill:#A4EDE6;stroke:#000000;stroke-width:3;stroke-linecap:round;stroke-linejoin:round;stroke-miterlimit:10;}
	.st19{fill:#FFDD64;stroke:#000000;stroke-width:3;stroke-linecap:round;stroke-linejoin:round;stroke-miterlimit:10;}
	.st20{fill:none;stroke:#000000;stroke-width:3;stroke-linecap:round;stroke-linejoin:round;stroke-miterlimit:10;}
	.st21{fill:#FC3A52;stroke:#000000;stroke-width:3;stroke-linecap:round;stroke-linejoin:round;stroke-miterlimit:10;}
	.st22{fill:none;stroke:#000000;stroke-width:2;stroke-linecap:round;stroke-linejoin:round;stroke-miterlimit:10;}
	.st23{fill:#D6F4F0;stroke:#000000;stroke-width:2;stroke-linecap:round;stroke-linejoin:round;stroke-miterlimit:10;}
	.st24{fill:#A4EDE6;stroke:#000000;stroke-width:2;stroke-linecap:round;stroke-linejoin:round;stroke-miterlimit:10;}
	.st25{fill:#E1F9F7;stroke:#000000;stroke-width:2;stroke-linecap:round;stroke-linejoin:round;stroke-miterlimit:10;}
	.st26{fill:#FC3A52;stroke:#000000;stroke-width:2;stroke-linecap:round;stroke-linejoin:round;stroke-miterlimit:10;}
	.st27{fill:#BAEBE5;stroke:#000000;stroke-width:2;stroke-linecap:round;stroke-linejoin:round;stroke-miterlimit:10;}
	.st28{fill:#FABEA3;stroke:#000000;stroke-width:2;stroke-linecap:round;stroke-linejoin:round;stroke-miterlimit:10;}
	.st29{fill:#FFC8B3;stroke:#000000;stroke-width:2;stroke-linecap:round;stroke-linejoin:round;stroke-miterlimit:10;}
	.st30{fill:#2A8FE7;stroke:#000000;stroke-width:2;stroke-linecap:round;stroke-linejoin:round;stroke-miterlimit:10;}
	.st31{fill:#EEBE71;stroke:#000000;stroke-width:2;stroke-linecap:round;stroke-linejoin:round;stroke-miterlimit:10;}
	.st32{display:inline;fill:none;stroke:#000000;stroke-width:2;stroke-linecap:round;stroke-linejoin:round;stroke-miterlimit:10;}
	.st33{fill:#888888;stroke:#000000;stroke-width:2;stroke-linecap:round;stroke-linejoin:round;stroke-miterlimit:10;}
	.st34{fill:#A3A3A3;stroke:#000000;stroke-width:2;stroke-linecap:round;stroke-linejoin:round;stroke-miterlimit:10;}
	.st35{fill:#FFDD64;stroke:#000000;stroke-width:2;stroke-linecap:round;stroke-linejoin:round;stroke-miterlimit:10;}
	.st36{fill:#FD7283;stroke:#000000;stroke-width:2;stroke-linecap:round;stroke-linejoin:round;stroke-miterlimit:10;}
	.st37{fill:#F2FCFC;stroke:#000000;stroke-width:2;stroke-linecap:round;stroke-linejoin:round;stroke-miterlimit:10;}
	.st38{fill:#333333;stroke:#000000;stroke-width:2;stroke-linecap:round;stroke-linejoin:round;stroke-miterlimit:10;}
	.st39{fill:#F4FBFB;stroke:#000000;stroke-width:2;stroke-linecap:round;stroke-linejoin:round;stroke-miterlimit:10;}
	.st40{fill:#838383;stroke:#000000;stroke-width:2;stroke-linecap:round;stroke-linejoin:round;stroke-miterlimit:10;}
	.st41{fill:#CBF5F1;stroke:#000000;stroke-width:2;stroke-linecap:round;stroke-linejoin:round;stroke-miterlimit:10;}
	
		.st42{display:inline;fill:#FFC8B3;stroke:#000000;stroke-width:2;stroke-linecap:round;stroke-linejoin:round;stroke-miterlimit:10;}
	
		.st43{display:inline;fill:#2A8FE7;stroke:#000000;stroke-width:2;stroke-linecap:round;stroke-linejoin:round;stroke-miterlimit:10;}
	.st44{fill:#FFC06D;stroke:#000000;stroke-width:2;stroke-linecap:round;stroke-linejoin:round;stroke-miterlimit:10;}
	
		.st45{display:inline;fill:#F2FCFC;stroke:#000000;stroke-width:2;stroke-linecap:round;stroke-linejoin:round;stroke-miterlimit:10;}
	.st46{fill:#FFDD64;}
	
		.st47{display:inline;fill:#D6F4F0;stroke:#000000;stroke-width:2;stroke-linecap:round;stroke-linejoin:round;stroke-miterlimit:10;}
	
		.st48{display:inline;fill:#FC3A52;stroke:#000000;stroke-width:2;stroke-linecap:round;stroke-linejoin:round;stroke-miterlimit:10;}
	
		.st49{display:inline;fill:#FD7283;stroke:#000000;stroke-width:2;stroke-linecap:round;stroke-linejoin:round;stroke-miterlimit:10;}
	.st50{fill:#2A8FE7;}
	.st51{fill:#0080CE;}
	.st52{fill:#6E5043;}
	.st53{fill:#4C3F3A;}
	.st54{fill:#FC3A52;}
	.st55{fill:#E41F45;}
	.st56{fill:#FFB89C;}
	.st57{fill:#F4A38A;}
	.st58{fill:#FFC8B3;}
	.st59{fill:#A4EDE6;}
	.st60{fill:#86E0D5;}
	.st61{fill:#E9FBF8;}
	.st62{fill:#C6F4EE;}
	.st63{fill:#D60041;}
	.st64{fill:#FD6175;}
	.st65{fill:#006CBC;}
	.st66{fill:#838383;}
	.st67{fill:#707070;}
	.st68{fill:#666868;}
	.st69{fill:#FFA5B0;}
	.st70{fill:#FD7283;}
	.st71{fill:#E1F9F7;}
	.st72{fill:#B6F1EB;}
	.st73{fill:#F2FCFC;}
	.st74{fill:#6BD1C8;}
	.st75{fill:#D7F9F8;}
	.st76{fill:#BAEBE5;}
	.st77{fill:#F4C738;}
	.st78{fill:none;}
	.st79{fill:#806561;}
</style><g class="st0" id="Layer_1"/><g class="st0" id="Layer_4"><rect class="st1" height="524" width="524" x="-104" y="-272"/></g><g class="st0" id="Filled"><g class="st2"><path class="st22" d="M53,44L53,44l0-25c0-2.21,1.79-4,4-4h0c2.21,0,4,1.79,4,4v17C61,40.42,57.42,44,53,44z"/><path class="st22" d="M11,44L11,44l0-25c0-2.21-1.79-4-4-4h0c-2.21,0-4,1.79-4,4v17C3,40.42,6.58,44,11,44z"/><path class="st23" d="M53,44c-1.56,1.41-9.15,8-21,8c-2.15,0-12.42-0.22-21-8c0-6,0-21,0-25l21-6l21,6V44z"/><polyline class="st22" points="21,23 32,19.86 43,23   "/><path class="st22" d="M43,44.58C40.09,45.91,36.38,47,32,47c-1.65,0-6.13-0.23-11-2.4"/><path class="st22" d="M43,38.96C40.49,40.43,36.7,42,32,42c-1.5,0-6.28-0.24-11-3"/></g></g><g id="Flat"><g><path class="st59" d="M53,44c-1.56,1.41-9.15,8-21,8c-2.15,0-12.42-0.22-21-8c0-6,0-21,0-25l21-6l21,6V44z"/><path class="st60" d="M53,44V19l-21-6v39C43.85,52,51.44,45.41,53,44z"/><path class="st60" d="M57,14c-2.31,0-4.25,1.59-4.82,3.73l-19.91-5.69c-0.18-0.05-0.37-0.05-0.55,0l-19.91,5.69    C11.25,15.59,9.31,14,7,14c-2.76,0-5,2.24-5,5v17c0,4.83,3.83,8.77,8.61,8.98C18.77,52.2,28.26,53,32,53    c11,0,18.47-5.43,21.4-8.02C58.18,44.77,62,40.83,62,36V19C62,16.24,59.76,14,57,14z M4,36V19c0-1.65,1.35-3,3-3s3,1.35,3,3v23.93    C6.61,42.44,4,39.52,4,36z M12,43.55v-23.8l20-5.71l20,5.71v23.8C49.19,46.01,42.22,51,32,51C28.5,51,19.63,50.27,12,43.55z     M60,36c0,3.52-2.61,6.44-6,6.93V19c0-1.65,1.35-3,3-3s3,1.35,3,3V36z"/><path class="st74" d="M52,19.75v23.8C49.19,46.01,42.22,51,32,51v2c11,0,18.47-5.43,21.4-8.02C58.18,44.77,62,40.83,62,36V19    c0-2.76-2.24-5-5-5c-2.31,0-4.25,1.59-4.82,3.73l-19.91-5.69C32.19,12.01,32.09,12,32,12v2.04L52,19.75z M54,19c0-1.65,1.35-3,3-3    s3,1.35,3,3v17c0,3.52-2.61,6.44-6,6.93V19z"/><path class="st73" d="M21.27,23.96L32,20.9l10.73,3.06C42.82,23.99,42.91,24,43,24c0.44,0,0.84-0.29,0.96-0.73    c0.15-0.53-0.16-1.08-0.69-1.24l-11-3.14c-0.18-0.05-0.37-0.05-0.55,0l-11,3.14c-0.53,0.15-0.84,0.71-0.69,1.24    C20.19,23.81,20.74,24.11,21.27,23.96z"/><path class="st73" d="M42.58,43.67C39.2,45.22,35.64,46,32,46c-1.62,0-5.91-0.22-10.59-2.31c-0.51-0.22-1.1,0-1.32,0.51    c-0.22,0.5,0,1.1,0.51,1.32C25.63,47.76,30.25,48,32,48c3.93,0,7.77-0.84,11.42-2.51c0.5-0.23,0.72-0.82,0.49-1.33    C43.68,43.66,43.09,43.45,42.58,43.67z"/><path class="st73" d="M42.49,38.09C40.23,39.42,36.58,41,32,41c-1.31,0-5.95-0.21-10.49-2.87c-0.48-0.28-1.09-0.12-1.37,0.36    s-0.12,1.09,0.36,1.37C25.47,42.77,30.56,43,32,43c5.03,0,9.03-1.73,11.51-3.18c0.48-0.28,0.64-0.89,0.36-1.37    C43.58,37.97,42.97,37.81,42.49,38.09z"/><path class="st75" d="M42.73,23.96C42.82,23.99,42.91,24,43,24c0.44,0,0.84-0.29,0.96-0.73c0.15-0.53-0.16-1.08-0.69-1.24    l-11-3.14c-0.09-0.03-0.18-0.04-0.27-0.04v2.04L42.73,23.96z"/><path class="st75" d="M43.51,39.82c0.48-0.28,0.64-0.89,0.36-1.37c-0.28-0.48-0.89-0.64-1.37-0.36C40.23,39.42,36.58,41,32,41v2    C37.03,43,41.03,41.27,43.51,39.82z"/><path class="st75" d="M43.42,45.49c0.5-0.23,0.72-0.82,0.49-1.33c-0.23-0.5-0.82-0.72-1.32-0.5C39.2,45.22,35.64,46,32,46v2    C35.93,48,39.77,47.16,43.42,45.49z"/></g></g><g class="st0" id="Line"><g class="st2"><path class="st22" d="M53,19c0-2.21,1.79-4,4-4h0c2.21,0,4,1.79,4,4v17c0,4.42-3.58,8-8,8h0"/><path class="st22" d="M11,19c0-2.21-1.79-4-4-4h0c-2.21,0-4,1.79-4,4v17c0,4.42,3.58,8,8,8h0"/><path class="st22" d="M53,44c-1.56,1.41-9.15,8-21,8c-2.15,0-12.42-0.22-21-8c0-6,0-21,0-25l21-6l21,6V44z"/><polyline class="st22" points="21,23 32,19.86 43,23   "/><path class="st22" d="M43,44.58C40.09,45.91,36.38,47,32,47c-1.65,0-6.13-0.23-11-2.4"/><path class="st22" d="M43,38.96C40.49,40.43,36.7,42,32,42c-1.5,0-6.28-0.24-11-3"/></g></g><g class="st0" id="Solid"><g class="st2"><g><path d="M12,44h-1c-4.96,0-9-4.04-9-9V19.5C2,16.47,4.47,14,7.5,14s5.5,2.47,5.5,5.5V22h-2v-2.5c0-1.93-1.57-3.5-3.5-3.5     S4,17.57,4,19.5V35c0,3.86,3.14,7,7,7h1V44z"/></g><g><path d="M52,44h1c4.96,0,9-4.04,9-9V19.5c0-3.03-2.47-5.5-5.5-5.5S51,16.47,51,19.5V22h2v-2.5c0-1.93,1.57-3.5,3.5-3.5     s3.5,1.57,3.5,3.5V35c0,3.86-3.14,7-7,7h-1V44z"/></g><g><path d="M32,13l-21,6c0,4,0,19,0,25c8.58,7.78,18.85,8,21,8c11.85,0,19.44-6.59,21-8V19L32,13z M20.73,22.04l11-3.14     c0.18-0.05,0.37-0.05,0.55,0l11,3.14c0.53,0.15,0.84,0.71,0.69,1.24C43.84,23.71,43.44,24,43,24c-0.09,0-0.18-0.01-0.28-0.04     L32,20.9l-10.73,3.06c-0.53,0.15-1.08-0.16-1.24-0.69C19.89,22.74,20.19,22.19,20.73,22.04z M43.51,39.82     C41.03,41.27,37.03,43,32,43c-1.44,0-6.53-0.23-11.51-3.14c-0.48-0.28-0.64-0.89-0.36-1.37s0.89-0.63,1.37-0.36     C26.05,40.79,30.69,41,32,41c4.58,0,8.23-1.58,10.49-2.91c0.48-0.28,1.09-0.12,1.37,0.36C44.14,38.93,43.98,39.54,43.51,39.82z      M43.42,45.49C39.77,47.16,35.93,48,32,48c-1.75,0-6.37-0.24-11.41-2.48c-0.5-0.22-0.73-0.82-0.51-1.32     c0.22-0.5,0.81-0.73,1.32-0.51C26.09,45.78,30.38,46,32,46c3.64,0,7.2-0.78,10.58-2.33c0.5-0.23,1.1-0.01,1.32,0.5     C44.14,44.67,43.92,45.26,43.42,45.49z"/></g></g></g></svg>